<?xml version="1.0" encoding="iso-8859-1"?>
<!-- Generator: Adobe Illustrator 19.0.0, SVG Export Plug-In . SVG Version: 6.00 Build 0)  -->
<svg version="1.1" id="Capa_1" xmlns="http://www.w3.org/2000/svg" xmlns:xlink="http://www.w3.org/1999/xlink" x="0px" y="0px"
	 viewBox="0 0 512.005 512.005" style="enable-background:new 0 0 512.005 512.005;" xml:space="preserve">
<g>
	<g>
		<g>
			<path d="M256.003,219.308l-70.759,77.839h25.045c2.425-0.001,4.751,0.962,6.466,2.677c1.715,1.715,2.678,4.041,2.677,6.466
				v182.857h73.143V306.29c-0.001-2.425,0.962-4.751,2.677-6.466c1.715-1.715,4.041-2.678,6.466-2.677h25.045L256.003,219.308z"/>
			<path d="M505.617,216.544c-13.028-31.672-43.805-52.421-78.052-52.619c-2.425,0.001-4.751-0.962-6.466-2.677
				c-1.715-1.715-2.678-4.041-2.677-6.466c0.074-46.739-37.698-84.719-84.438-84.902c-7.512-0.043-14.991,0.991-22.21,3.071
				c-36.791,10.17-62.258,43.66-62.227,81.83c0,5.049-4.093,9.143-9.143,9.143c-5.049,0-9.143-4.093-9.143-9.143
				c0.014-41.255,24.595-78.539,62.506-94.809C261.43,24.954,210.89,13.42,166.561,30.943s-73.323,60.495-72.978,108.16
				c-0.005,4.873,0.286,9.742,0.871,14.58c0.023,0.191-0.055,0.361-0.044,0.551s0.11,0.353,0.11,0.547
				c-0.053,0.421-0.137,0.837-0.252,1.245c-0.059,0.606-0.18,1.204-0.36,1.786c-0.21,0.535-0.472,1.049-0.783,1.532
				c-1.107,2.105-3.092,3.611-5.419,4.109c-0.399,0.167-0.811,0.303-1.231,0.407c-0.363,0.042-0.728,0.062-1.093,0.061l-0.005,0.001
				H84.44c-22.412-0.093-43.912,8.871-59.621,24.857C0.627,213.023-6.64,249.422,6.389,281.094
				c13.029,31.673,43.804,52.422,78.051,52.625h116.705v-18.286h-36.571c-3.619,0-6.898-2.135-8.361-5.445
				c-1.464-3.31-0.837-7.172,1.598-9.849l91.429-100.571c1.778-1.824,4.217-2.853,6.763-2.853c2.547,0,4.986,1.029,6.763,2.853
				l91.429,100.571c2.435,2.677,3.062,6.539,1.598,9.849c-1.464,3.31-4.742,5.445-8.362,5.445H310.86v18.286h116.705
				c22.413,0.096,43.914-8.872,59.616-24.866C511.376,284.615,518.645,248.216,505.617,216.544z"/>
		</g>
	</g>
</g>
<g>
</g>
<g>
</g>
<g>
</g>
<g>
</g>
<g>
</g>
<g>
</g>
<g>
</g>
<g>
</g>
<g>
</g>
<g>
</g>
<g>
</g>
<g>
</g>
<g>
</g>
<g>
</g>
<g>
</g>
</svg>
